<svg id="Layer_1" data-name="Layer 1" xmlns="http://www.w3.org/2000/svg" viewBox="0 0 20 20"><defs><style>.cls-1{fill:#fcfcfc;}.cls-2{fill:#ed1a74;}.cls-3{fill:#fcfafb;}.cls-4{fill:#f9f7f8;}</style></defs><path class="cls-1" d="M2,19.49A1.43,1.43,0,0,1,.51,18.07V1.93A1.43,1.43,0,0,1,2,.51H16.12a1.43,1.43,0,0,1,1.46,1.42V18.07a1.43,1.43,0,0,1-1.46,1.42Z"/><path class="cls-2" d="M16.12,1a.94.94,0,0,1,1,.92V18.07a.94.94,0,0,1-1,.92H2a.94.94,0,0,1-1-.92V1.93A.94.94,0,0,1,2,1H16.12m0-1H2A2,2,0,0,0,0,1.93V18.07A2,2,0,0,0,2,20H16.12a2,2,0,0,0,2-1.93V1.93a2,2,0,0,0-2-1.93Z"/><path class="cls-1" d="M4.28,11.62l3.81-.08s0,.05,0,.08Z"/><path class="cls-2" d="M8.46,11.2H4.28a.38.38,0,1,0,0,.75H8.4a4.74,4.74,0,0,1,.06-.75Z"/><path class="cls-1" d="M9.74,11.62s0-.06,0-.09h2.81v.09Z"/><path class="cls-2" d="M12.56,11.2H9.47A3.67,3.67,0,0,0,9.4,12h3.16a.38.38,0,1,0,0-.75Z"/><path class="cls-1" d="M4.28,10.25v-.1H8.37l0,.1Z"/><path class="cls-2" d="M8.85,9.82H4.28a.38.38,0,0,0,0,.76H8.59a4.26,4.26,0,0,1,.26-.76Z"/><path class="cls-1" d="M10.11,10.25a.47.47,0,0,0,.05-.1h2.4v.1Z"/><path class="cls-2" d="M12.56,9.82H10a3.68,3.68,0,0,0-.34.76h2.93a.38.38,0,0,0,0-.76Z"/><path class="cls-1" d="M4.28,8.87,9,8.79a.35.35,0,0,1,0,.08Z"/><path class="cls-2" d="M9.72,8.45H4.28a.38.38,0,1,0,0,.75h4.9a4,4,0,0,1,.54-.75Z"/><path class="cls-1" d="M11.18,8.87l.12-.09h1.26v.09Z"/><path class="cls-2" d="M12.56,8.45H11.19a4.07,4.07,0,0,0-.8.75h2.17a.38.38,0,1,0,0-.75Z"/><path class="cls-1" d="M10.38,16.84a.16.16,0,1,1,0-.32h.2c.17.12.34.22.51.32Z"/><path class="cls-2" d="M10.65,16.3h-.27a.38.38,0,0,0,0,.76h1.78a5.36,5.36,0,0,1-1.51-.76Z"/><path class="cls-1" d="M7.22,13a.16.16,0,1,1,0-.32h1c0,.1,0,.21,0,.32Z"/><path class="cls-2" d="M8.43,12.42H7.22a.38.38,0,1,0,0,.76H8.55a3.77,3.77,0,0,1-.12-.76Z"/><path class="cls-1" d="M9.75,13a3,3,0,0,1-.07-.32h.88a.16.16,0,0,1,0,.32Z"/><path class="cls-2" d="M10.56,12.42H9.42a4.66,4.66,0,0,0,.16.76h1a.38.38,0,0,0,0-.76Z"/><path class="cls-2" d="M13.71,16.63a4.7,4.7,0,0,1-4.44-3.36,4.41,4.41,0,0,1-.18-.81c0-.18,0-.34,0-.51a4.15,4.15,0,0,1,.08-.82,3.06,3.06,0,0,1,.17-.66,4.17,4.17,0,0,1,.37-.82A4.27,4.27,0,0,1,10.14,9,4.36,4.36,0,0,1,11,8.18a4.62,4.62,0,0,1,2.75-.9,4.68,4.68,0,0,1,0,9.35Z"/><path class="cls-1" d="M13.75,7.61a4.35,4.35,0,0,1,0,8.69h0a4.36,4.36,0,0,1-4.13-3.12,4.66,4.66,0,0,1-.16-.76c0-.15,0-.31,0-.47a3.67,3.67,0,0,1,.07-.75,3.32,3.32,0,0,1,.16-.62A3.68,3.68,0,0,1,10,9.82a3.75,3.75,0,0,1,.42-.62,4.07,4.07,0,0,1,.8-.75,4.27,4.27,0,0,1,2.56-.84m0-.66A5.09,5.09,0,0,0,9.88,8.78a5.15,5.15,0,0,0-.49.73,4.3,4.3,0,0,0-.39.88,4.21,4.21,0,0,0-.18.72,4.06,4.06,0,0,0-.08.84,4.24,4.24,0,0,0,0,.51,4.78,4.78,0,0,0,.18.9A5,5,0,1,0,13.75,7Z"/><path class="cls-2" d="M7.27,6.58c0,1.11-1.09,1-2.43,1s-2.42.08-2.42-1a2.16,2.16,0,0,1,2-2A2,2,0,0,1,3.25,2.81c0-.88.71-1.34,1.59-1.34s1.6.46,1.6,1.34A2,2,0,0,1,5.25,4.59,2.17,2.17,0,0,1,7.27,6.58Z"/><polygon class="cls-3" points="5.42 6.95 4.84 7.48 4.27 6.95 4.68 4.98 4.43 4.63 5.25 4.63 5.01 4.99 5.42 6.95"/><rect class="cls-2" x="16.74" y="15.29" width="1.45" height="4.46" transform="translate(-6.84 12.91) rotate(-34.34)"/><path class="cls-4" d="M16.76,15.49l2.34,3.42-.94.65-2.34-3.43.94-.64m.09-.44-1.46,1L18.08,20l1.46-1-2.69-3.95Z"/><rect class="cls-4" x="17.63" y="18.41" width="1.16" height="0.41" transform="translate(-7.33 13.52) rotate(-34.35)"/></svg>