<svg id="Layer_1" data-name="Layer 1" xmlns="http://www.w3.org/2000/svg" viewBox="0 0 20 20"><defs><style>.cls-1,.cls-2,.cls-5{fill:#fdfefe;}.cls-1,.cls-2,.cls-3,.cls-5{stroke:#ed1a6c;stroke-miterlimit:10;}.cls-1{stroke-width:0.52px;}.cls-2,.cls-3{stroke-width:0.26px;}.cls-3{fill:none;}.cls-4{fill:#ed1d75;}.cls-5{stroke-width:0.25px;}</style></defs><title>training program</title><line class="cls-1" x1="4.27" y1="1.98" x2="20" y2="1.98"/><line class="cls-1" x1="18.69" y1="1.98" x2="18.69" y2="9.11"/><circle class="cls-2" cx="2.85" cy="7.11" r="1.06"/><path class="cls-3" d="M1.82,8.53l1,1.29,1-1.29L5,8.86,7.51,6.45l.6.57-3.05,3.2-.57.18s-.5.07-.41,1.19l.73,7H3.74l-.8-4.19L2.41,18.6H1.27l.22-4.41.15-3.09L1,14.37H.43V10.69S.4,8.56,1.82,8.53Z"/><circle class="cls-2" cx="7.7" cy="13.65" r="1.13"/><rect class="cls-4" x="4.86" y="1.98" width="0.52" height="5.96"/><rect class="cls-4" x="6.88" y="8.86" width="13.12" height="0.52"/><line class="cls-2" x1="7.78" y1="6.7" x2="9.79" y2="4.69"/><line class="cls-2" x1="7.4" y1="3.34" x2="17.22" y2="3.34"/><line class="cls-2" x1="8.79" y1="7.78" x2="17.22" y2="7.78"/><line class="cls-2" x1="10.38" y1="6.76" x2="17.22" y2="6.76"/><line class="cls-2" x1="11.85" y1="5.79" x2="17.22" y2="5.79"/><line class="cls-2" x1="16.74" y1="4.46" x2="17.1" y2="4.46"/><line class="cls-2" x1="15.79" y1="4.46" x2="16.15" y2="4.46"/><line class="cls-2" x1="14.83" y1="4.46" x2="15.2" y2="4.46"/><line class="cls-2" x1="13.88" y1="4.46" x2="14.25" y2="4.46"/><line class="cls-2" x1="12.93" y1="4.46" x2="13.29" y2="4.46"/><line class="cls-2" x1="11.98" y1="4.46" x2="12.34" y2="4.46"/><path class="cls-5" d="M6.33,18.63l.2-1.14-.06,1.14H9.07L9,17.5l.2,1.13h1V17.1s0-2-1.33-2.07L7.77,16.26,6.71,15c-1.37,0-1.33,2.07-1.33,2.07v1.54Z"/><circle class="cls-2" cx="12.6" cy="13.65" r="1.13"/><path class="cls-5" d="M11.23,18.63l.2-1.14-.06,1.14H14l-.06-1.13.2,1.13h1V17.1s0-2-1.33-2.07l-1.06,1.23L11.61,15c-1.37,0-1.33,2.07-1.33,2.07v1.54Z"/><circle class="cls-2" cx="17.46" cy="13.65" r="1.13"/><path class="cls-5" d="M16.09,18.63l.2-1.14-.06,1.14h2.59l-.06-1.13.2,1.13h1V17.1s0-2-1.33-2.07l-1.06,1.23L16.48,15c-1.37,0-1.33,2.07-1.33,2.07v1.54Z"/></svg>