<svg id="Layer_1" data-name="Layer 1" xmlns="http://www.w3.org/2000/svg" viewBox="0 0 20 20"><defs><style>.cls-1{fill:#fff;stroke:#ed248b;stroke-miterlimit:10;stroke-width:0.75px;}.cls-2{fill:#ed1d75;}.cls-3{fill:#231f20;}</style></defs><rect class="cls-1" x="0.44" y="0.35" width="19.24" height="15.26" rx="1.4"/><rect class="cls-2" x="6.79" y="15.45" width="6.42" height="2.98"/><rect class="cls-2" x="3.19" y="18.43" width="13.61" height="1.28" rx="0.48"/><path class="cls-2" d="M6.4,8A4,4,0,0,0,3.1,9.7h-2V8.51c0-.36.21-1.1,1.76-1.25A5,5,0,0,0,4.35,7a2.82,2.82,0,0,1-.8-2A1.65,1.65,0,0,1,5,3.14h.1A1.62,1.62,0,0,1,6.57,4.85V5a1,1,0,0,1,0,.25h0A2.76,2.76,0,0,1,5.77,7a4.58,4.58,0,0,0,1.15.27c.09.24.19.48.3.71C7,8,6.71,8,6.4,8Z"/><path class="cls-3" d="M9,8.51V9.7H4.44a4.1,4.1,0,0,1,2-.66A8,8,0,0,0,8.8,8.51,3.81,3.81,0,0,1,8,7.45,1.16,1.16,0,0,1,9,8.51Z"/><path class="cls-3" d="M13.51,9a4.1,4.1,0,0,1,2,.66H11V8.51a1.15,1.15,0,0,1,.91-1.06,3.81,3.81,0,0,1-.76,1.06A8,8,0,0,0,13.51,9Z"/><path class="cls-2" d="M18.87,8.51V9.7h-2A4,4,0,0,0,13.61,8a3,3,0,0,1-.83-.07c.11-.23.21-.47.3-.71A4.5,4.5,0,0,0,14.23,7a2.7,2.7,0,0,1-.79-1.71h0a1,1,0,0,1,0-.25V5a1.62,1.62,0,0,1,1.49-1.74h0A1.65,1.65,0,0,1,16.45,5h0a2.82,2.82,0,0,1-.8,2,4.88,4.88,0,0,0,1.46.31C18.66,7.41,18.86,8.15,18.87,8.51Z"/><path class="cls-3" d="M13.44,5.21a1,1,0,0,1,0-.25V4.87a1.22,1.22,0,0,1,0,.27Z"/><path class="cls-2" d="M16.35,11.14v2H3.65v-2A1.82,1.82,0,0,1,4.44,9.7a4.1,4.1,0,0,1,2-.66A8,8,0,0,0,8.8,8.51,3.81,3.81,0,0,1,8,7.45a5.58,5.58,0,0,1-.53-2.31C7.56,3.31,8.65,2,10,2s2.44,1.27,2.44,3.1a5.58,5.58,0,0,1-.53,2.31,3.81,3.81,0,0,1-.76,1.06A8,8,0,0,0,13.51,9a4.1,4.1,0,0,1,2,.66A1.82,1.82,0,0,1,16.35,11.14Z"/></svg>