<?xml version="1.0" encoding="utf-8"?>
<!-- Generator: Adobe Illustrator 25.2.0, SVG Export Plug-In . SVG Version: 6.00 Build 0)  -->
<svg version="1.1" id="Layer_1" xmlns="http://www.w3.org/2000/svg" xmlns:xlink="http://www.w3.org/1999/xlink" x="0px" y="0px"
	 viewBox="0 0 20 20" style="enable-background:new 0 0 20 20;" xml:space="preserve">
<style type="text/css">
	.st0{fill:#FC0073;}
	.st1{display:none;fill:#FCFAFB;}
	.st2{fill:#FCFAFB;}
</style>
<path class="st0" d="M19.5,8.8h-1.8v9.5c0,1-0.8,1.7-1.7,1.7H4c-0.9,0-1.6-0.7-1.6-1.6V8.8H0.6c-0.6,0-0.8-1-0.3-1.5l9.4-7.2
	c0.2-0.1,0.4-0.1,0.6,0l9.4,7.2C20.2,7.8,20,8.8,19.5,8.8z"/>
<g>
	<path class="st2" d="M8.27,6.58c-1.4,0-2.54,1.14-2.54,2.54c0,1.4,1.14,2.54,2.54,2.54s2.54-1.14,2.54-2.54
		C10.81,7.71,9.67,6.58,8.27,6.58z M8.27,10.39C7.57,10.39,7,9.82,7,9.12c0-0.7,0.57-1.27,1.27-1.27s1.27,0.57,1.27,1.27
		C9.54,9.82,8.97,10.39,8.27,10.39z"/>
	<path class="st2" d="M8.8,6.85H7.74V5.69c0-0.27,0.22-0.49,0.49-0.49h0.08c0.27,0,0.49,0.22,0.49,0.49V6.85z"/>
	<path class="st2" d="M7.01,7.18L6.27,7.93L5.44,7.11c-0.19-0.19-0.19-0.5,0-0.69L5.5,6.36c0.19-0.19,0.5-0.19,0.69,0L7.01,7.18z"/>
	<path class="st2" d="M5.98,8.68v1.06H4.82c-0.27,0-0.49-0.22-0.49-0.49V9.17c0-0.27,0.22-0.49,0.49-0.49H5.98z"/>
	<path class="st2" d="M6.31,10.47l0.75,0.75l-0.82,0.82c-0.19,0.19-0.5,0.19-0.69,0l-0.05-0.05c-0.19-0.19-0.19-0.5,0-0.69
		L6.31,10.47z"/>
	<path class="st2" d="M7.81,11.5h1.06v1.16c0,0.27-0.22,0.49-0.49,0.49H8.3c-0.27,0-0.49-0.22-0.49-0.49V11.5z"/>
	<path class="st2" d="M9.6,11.17l0.75-0.75l0.82,0.82c0.19,0.19,0.19,0.5,0,0.69l-0.05,0.05c-0.19,0.19-0.5,0.19-0.69,0L9.6,11.17z"
		/>
	<path class="st2" d="M10.63,9.67V8.62h1.16c0.27,0,0.49,0.22,0.49,0.49v0.08c0,0.27-0.22,0.49-0.49,0.49H10.63z"/>
	<path class="st2" d="M10.3,7.88L9.55,7.14l0.82-0.82c0.19-0.19,0.5-0.19,0.69,0l0.05,0.05c0.19,0.19,0.19,0.5,0,0.69L10.3,7.88z"/>
</g>
<g>
	<path class="st2" d="M12.43,12.47c-1.11,0.27-1.78,1.39-1.51,2.5c0.27,1.11,1.39,1.78,2.5,1.51s1.78-1.39,1.51-2.5
		C14.65,12.87,13.53,12.2,12.43,12.47z M13.17,15.47c-0.55,0.14-1.11-0.2-1.25-0.75c-0.14-0.55,0.2-1.11,0.75-1.25
		c0.55-0.14,1.11,0.2,1.25,0.75C14.06,14.78,13.72,15.34,13.17,15.47z"/>
	<path class="st2" d="M12.9,12.59l-0.83,0.21l-0.22-0.89c-0.06-0.23,0.08-0.46,0.31-0.52h0c0.23-0.06,0.46,0.08,0.52,0.31
		L12.9,12.59z"/>
	<path class="st2" d="M11.55,13.19l-0.44,0.73l-0.78-0.47c-0.2-0.12-0.27-0.39-0.15-0.59h0c0.12-0.2,0.39-0.27,0.59-0.15
		L11.55,13.19z"/>
	<path class="st2" d="M11.03,14.58l0.21,0.83l-0.89,0.22c-0.23,0.06-0.46-0.08-0.52-0.31v0c-0.06-0.23,0.08-0.46,0.31-0.52
		L11.03,14.58z"/>
	<path class="st2" d="M11.64,15.92l0.73,0.44l-0.47,0.78c-0.12,0.2-0.39,0.27-0.59,0.15l0,0c-0.2-0.12-0.27-0.39-0.15-0.59
		L11.64,15.92z"/>
	<path class="st2" d="M13.02,16.44l0.83-0.21l0.22,0.89c0.06,0.23-0.08,0.46-0.31,0.52h0c-0.23,0.06-0.46-0.08-0.52-0.31
		L13.02,16.44z"/>
	<path class="st2" d="M14.36,15.83l0.44-0.73l0.78,0.47c0.2,0.12,0.27,0.39,0.15,0.59l0,0c-0.12,0.2-0.39,0.27-0.59,0.15
		L14.36,15.83z"/>
	<path class="st2" d="M14.88,14.45l-0.21-0.83l0.89-0.22c0.23-0.06,0.46,0.08,0.52,0.31v0c0.06,0.23-0.08,0.46-0.31,0.52
		L14.88,14.45z"/>
	<path class="st2" d="M14.28,13.11l-0.73-0.44l0.47-0.78c0.12-0.2,0.39-0.27,0.59-0.15l0,0c0.2,0.12,0.27,0.39,0.15,0.59
		L14.28,13.11z"/>
</g>
</svg>
