<svg id="Layer_1" data-name="Layer 1" xmlns="http://www.w3.org/2000/svg" viewBox="0 0 20.15 20"><defs><style>.cls-1{fill:#fffdfe;}.cls-2,.cls-4{fill:#fff;}.cls-2,.cls-4,.cls-5{stroke:#ff038d;stroke-miterlimit:10;}.cls-2,.cls-5{stroke-width:0.44px;}.cls-3{fill:#ed1a74;}.cls-4{stroke-width:0.25px;}.cls-5{fill:none;}.cls-6{fill:#fcfafb;}</style></defs><polygon class="cls-1" points="3.4 4.6 2.8 4.6 2.8 15 3.1 15.3 9.24 15.42 17.7 14.99 19.05 14.8 19.13 13.5 8.16 6.79 3.4 4.6"/><path class="cls-2" d="M2.55,4.56h15.6a.56.56,0,0,1,.6.5v9.4"/><path class="cls-2" d="M.3,17.47V5.67C.3,4.49,1,3.51,1.84,3.51h.49V15.84"/><path class="cls-2" d="M18.75,14.46v4.76a.47.47,0,0,1-.45.49H2.66A2.32,2.32,0,0,1,.3,17.43v-.09h0A2.32,2.32,0,0,1,2.55,15.1"/><path class="cls-3" d="M15.74,9.35V9.7H12.65V9.35a1.53,1.53,0,0,1,1.5-1.48A1.55,1.55,0,0,1,15.74,9.35Z"/><path class="cls-4" d="M12.74,9.58l-.09.43s-.87-.26.72,1.75a1,1,0,0,0,1.42.17,1,1,0,0,0,.18-.17c1.59-2.1.71-1.75.71-1.75l-.08-.43"/><path class="cls-3" d="M12.82,12.46l-1.66.78a1,1,0,0,0-.87,1v.29h3.27Z"/><path class="cls-3" d="M15.58,12.39l1.66.78a1,1,0,0,1,.87,1.05v.29H14.88Z"/><path class="cls-3" d="M14.53,13.46H14a.37.37,0,0,1-.35-.35h0a.37.37,0,0,1,.35-.35h.52a.37.37,0,0,1,.35.35h0A.37.37,0,0,1,14.53,13.46Z"/><polygon class="cls-3" points="14.74 14.55 13.87 14.55 14.04 13.33 14.48 13.33 14.74 14.55"/><line class="cls-5" x1="10.55" y1="8.63" x2="5.91" y2="8.63"/><line class="cls-5" x1="8.46" y1="11.61" x2="5.91" y2="11.61"/><line class="cls-5" x1="5.91" y1="14.56" x2="7.66" y2="14.56"/><polyline class="cls-2" points="4.05 8.69 4.36 9.09 5.05 8.16"/><path class="cls-3" d="M4.53,11H4.15v-.28a.09.09,0,0,1,.09-.09h.19a.09.09,0,0,1,.09.09h0Z"/><path class="cls-3" d="M4,11l-.26.26-.21-.2a.09.09,0,0,1,0-.12h0l.14-.14a.09.09,0,0,1,.12,0h0Z"/><path class="cls-3" d="M3.7,11.46v.36H3.42a.08.08,0,0,1-.09-.08h0v-.2a.09.09,0,0,1,.09-.08H3.7Z"/><path class="cls-3" d="M3.76,11.94,4,12.2l-.2.22a.08.08,0,0,1-.12,0h0l-.14-.13a.09.09,0,0,1,0-.12h0Z"/><path class="cls-3" d="M4.15,12.26h.37v.28a.09.09,0,0,1-.09.09H4.25a.1.1,0,0,1-.1-.08h0Z"/><path class="cls-3" d="M4.67,12.2l.26-.26.19.19a.11.11,0,0,1,0,.13h0L5,12.42a.08.08,0,0,1-.12,0h0Z"/><path class="cls-3" d="M5,11.8v-.34h.28a.09.09,0,0,1,.09.08h0v.2a.08.08,0,0,1-.09.08h0Z"/><path class="cls-3" d="M4.93,11.28,4.67,11l.2-.2a.11.11,0,0,1,.13,0H5l.14.14a.09.09,0,0,1,0,.12h0Z"/><circle class="cls-3" cx="4.34" cy="11.61" r="0.77"/><circle class="cls-6" cx="4.34" cy="11.61" r="0.41"/><path class="cls-3" d="M4.75,13.8H4.34v-.3a.11.11,0,0,1,.1-.1h.21a.1.1,0,0,1,.09.1h0Z"/><path class="cls-3" d="M4.2,13.88l-.29.28L3.69,14a.09.09,0,0,1,0-.13h0l.15-.15a.09.09,0,0,1,.13,0H4Z"/><path class="cls-3" d="M3.85,14.31v.4h-.3a.09.09,0,0,1-.1-.1h0V14.4a.09.09,0,0,1,.1-.09h.3Z"/><path class="cls-3" d="M3.91,14.88l.29.28L4,15.38a.1.1,0,0,1-.14,0h0l-.15-.15a.09.09,0,0,1,0-.13h0Z"/><path class="cls-3" d="M4.34,15.22h.4v.31a.09.09,0,0,1-.09.09h-.2a.1.1,0,0,1-.11-.08h0Z"/><path class="cls-3" d="M4.91,15.16l.29-.28.22.22a.09.09,0,0,1,0,.13h0l-.15.15a.09.09,0,0,1-.13,0h0Z"/><path class="cls-3" d="M5.26,14.72v-.4h.3a.09.09,0,0,1,.1.09h0v.21a.09.09,0,0,1-.1.1h-.3Z"/><path class="cls-3" d="M5.2,14.16l-.29-.28.22-.22a.11.11,0,0,1,.14,0h0l.15.14a.11.11,0,0,1,0,.14l0,0Z"/><circle class="cls-3" cx="4.55" cy="14.52" r="0.84"/><circle class="cls-6" cx="4.55" cy="14.52" r="0.45"/></svg>