<svg id="Layer_1" data-name="Layer 1" xmlns="http://www.w3.org/2000/svg" viewBox="0 0 20 20"><defs><style>.cls-1{fill:#fff;}.cls-2{fill:#fc0073;}</style></defs><title>interview preparation-01</title><rect class="cls-1" x="0.07" width="20" height="20"/><path class="cls-2" d="M2.1,15.2h0a.44.44,0,0,1-.6-.4L.1,6.2C0,6,.2,5.7.5,5.6h0c.3,0,.6.1.6.4l1.4,8.6A.44.44,0,0,1,2.1,15.2Z"/><path class="cls-2" d="M1.7,14.8h0a.47.47,0,0,1,.5-.5H6.3a.47.47,0,0,1,.5.5h0a.47.47,0,0,1-.5.5H2.2A.54.54,0,0,1,1.7,14.8Z"/><path class="cls-2" d="M7.8,12.8H8a.47.47,0,0,1,.5.5v4.1a.47.47,0,0,1-.5.5H7.8a.47.47,0,0,1-.5-.5V13.3A.47.47,0,0,1,7.8,12.8Z"/><path class="cls-2" d="M3,13.5v-.2a.47.47,0,0,1,.5-.5H8a.47.47,0,0,1,.5.5v.2A.47.47,0,0,1,8,14H3.5A.47.47,0,0,1,3,13.5Z"/><path class="cls-2" d="M3.5,14h0a.79.79,0,0,1-.8-.8V7.5a.79.79,0,0,1,.8-.8h0a.77.77,0,0,1,.9.8v5.7A.82.82,0,0,1,3.5,14Z"/><rect class="cls-2" x="3.9" y="15.3" width="0.6" height="3.7"/><polygon class="cls-2" points="7 19.2 1.5 19.2 2.4 17.6 6.1 17.6 7 19.2"/><path class="cls-2" d="M7.6,11.2h0a.49.49,0,0,1-.7.1L3.6,9.1a.53.53,0,0,1-.2-.7h0a.49.49,0,0,1,.7-.1l3.3,2.2C7.7,10.6,7.7,10.9,7.6,11.2Z"/><path class="cls-2" d="M14.5,11.9h-9a.22.22,0,0,1-.2-.2h0a.22.22,0,0,1,.2-.2h9a.22.22,0,0,1,.2.2h0A.22.22,0,0,1,14.5,11.9Z"/><ellipse class="cls-2" cx="3.5" cy="4.3" rx="1.3" ry="1.7"/><rect class="cls-2" x="9" y="12.4" width="2" height="6.8"/><path class="cls-2" d="M17.9,15.2h0a.44.44,0,0,0,.6-.4l1.4-8.6c0-.3-.1-.6-.4-.6h0c-.3,0-.6.1-.6.4l-1.4,8.6A.44.44,0,0,0,17.9,15.2Z"/><path class="cls-2" d="M18.3,14.8h0a.47.47,0,0,0-.5-.5H13.7a.47.47,0,0,0-.5.5h0a.47.47,0,0,0,.5.5h4.1A.54.54,0,0,0,18.3,14.8Z"/><path class="cls-2" d="M12.3,12.8H12a.47.47,0,0,0-.5.5v4.1a.47.47,0,0,0,.5.5h.2a.47.47,0,0,0,.5-.5V13.3A.4.4,0,0,0,12.3,12.8Z"/><path class="cls-2" d="M17,13.5v-.2a.47.47,0,0,0-.5-.5H12a.47.47,0,0,0-.5.5v.2a.47.47,0,0,0,.5.5h4.5A.47.47,0,0,0,17,13.5Z"/><path class="cls-2" d="M16.5,14h0a.79.79,0,0,0,.8-.8V7.5a.79.79,0,0,0-.8-.8h0a.79.79,0,0,0-.8.8v5.7C15.6,13.7,16,14,16.5,14Z"/><rect class="cls-2" x="15.45" y="15.23" width="0.6" height="3.7"/><polygon class="cls-2" points="13 19.2 18.5 19.2 17.6 17.6 13.9 17.6 13 19.2"/><path class="cls-2" d="M12.4,11.2h0a.49.49,0,0,0,.7.1l3.3-2.2a.49.49,0,0,0,.1-.7h0a.49.49,0,0,0-.7-.1l-3.3,2.2C12.3,10.6,12.3,10.9,12.4,11.2Z"/><path class="cls-2" d="M5.5,11.9h9a.22.22,0,0,0,.2-.2h0a.22.22,0,0,0-.2-.2h-9a.22.22,0,0,0-.2.2h0A.22.22,0,0,0,5.5,11.9Z"/><ellipse class="cls-2" cx="16.5" cy="4.3" rx="1.3" ry="1.7"/><rect class="cls-2" x="9.01" y="12.46" width="2" height="6.8"/></svg>