<svg id="Layer_1" data-name="Layer 1" xmlns="http://www.w3.org/2000/svg" viewBox="0 0 21.56 20"><defs><style>.cls-1{fill:#fff;}.cls-2,.cls-4{fill:#ed1a74;}.cls-3{fill:none;stroke:#ed196a;stroke-miterlimit:10;stroke-width:0.25px;}.cls-4{stroke:#fff;stroke-miterlimit:10;stroke-width:0.25px;}</style></defs><rect class="cls-1" x="0.46" y="0.4" width="15.74" height="11.15"/><path d="M11.6,11.3h0l.1.5h-.3C11.5,11.6,11.5,11.4,11.6,11.3Z"/><path class="cls-2" d="M16.5.7V2.2H16V.7a.22.22,0,0,0-.2-.2H.7A.22.22,0,0,0,.5.7V11.1c0,.1.1.2,1.2.2H12.1c-1.1.2-.1.3-.2.5H.7a.67.67,0,0,1-.7-.66V.7A.67.67,0,0,1,.66,0H15.8a.67.67,0,0,1,.7.66Z"/><path class="cls-2" d="M18.8,5.5a2.92,2.92,0,0,1-2.6,3.1,2.85,2.85,0,0,1-2.6-3.08v0a2.92,2.92,0,0,1,2.6-3.1A3,3,0,0,1,18.8,5.5Z"/><path class="cls-2" d="M18.8,5.5a2.92,2.92,0,0,1-2.6,3.1,2.85,2.85,0,0,1-2.6-3.08v0a2.92,2.92,0,0,1,2.6-3.1A3,3,0,0,1,18.8,5.5Z"/><rect class="cls-2" x="3.5" y="5.9" width="1.1" height="4.4"/><rect class="cls-2" x="5" y="5" width="1.1" height="5.4"/><rect class="cls-2" x="6.5" y="5.9" width="1.1" height="4.4"/><rect class="cls-2" x="8.1" y="4" width="1.1" height="6.3"/><rect class="cls-3" x="3.01" y="4.21" width="2.8" height="0.2" transform="translate(-1.68 3.32) rotate(-35.09)"/><rect class="cls-3" x="5.98" y="3.8" width="2.8" height="0.2" transform="translate(-0.9 4.95) rotate(-35.09)"/><rect class="cls-3" x="5.82" y="3.29" width="0.2" height="1.6" transform="translate(-1.28 4.14) rotate(-35.09)"/><rect class="cls-2" x="5.8" y="11.72" width="3.6" height="0.46"/><polygon class="cls-2" points="7.65 11.5 9.65 12.7 11.65 13.9 7.65 13.9 3.55 13.9 5.65 12.7 7.65 11.5"/><path class="cls-4" d="M20.1,15.5a15.17,15.17,0,0,1-3.9.6,15.93,15.93,0,0,1-4-.6,2,2,0,0,1-1.1-2.2q.15-.9.3-1.5c.1-.2.1-.4.2-.5A9.25,9.25,0,0,1,14,7.9a10,10,0,0,0,1.5,1.8,1,1,0,0,0,1.4,0,7.64,7.64,0,0,0,1.4-1.8,8.78,8.78,0,0,1,2.9,5.5A2.17,2.17,0,0,1,20.1,15.5Z"/><polygon class="cls-2" points="9.74 2.2 8.1 2.34 9.05 3.69 9.74 2.2"/></svg>